# Blender v2.93.3 OBJ File: 'room.blend'
# www.blender.org
mtllib room.mtl
o Plane
v -20.000000 0.000000 20.000000
v 20.000000 0.000000 20.000000
v -20.000000 0.000000 -20.000000
v 20.000000 0.000000 -20.000000
v -19.000000 0.000000 19.000000
v 19.000000 0.000000 19.000000
v 19.000000 0.000000 -19.000000
v -19.000000 0.000000 -19.000000
v -19.000000 16.000000 -19.000000
v -19.000000 16.000000 19.000000
v 19.000000 16.000000 19.000000
v 19.000000 16.000000 -19.000000
v -20.000000 16.000000 20.000000
v 20.000000 16.000000 20.000000
v 20.000000 16.000000 -20.000000
v -20.000000 16.000000 -20.000000
v 10.163813 0.495488 -19.000000
v 17.200447 0.495488 -19.000000
v 17.200447 15.504511 -19.000000
v 10.163813 15.504511 -19.000000
v 17.200447 0.495488 -20.000000
v 10.163813 0.495488 -20.000000
v 10.163813 15.504511 -20.000000
v 17.200447 15.504511 -20.000000
vt -24.384411 -27.363636
vt 13.615588 -27.363636
vt 13.615588 10.636364
vt -24.384411 10.636364
vt -27.363636 -8.590909
vt 10.636364 -8.590909
vt 10.636364 7.409091
vt -27.363636 7.409091
vt 0.000000 0.000000
vt 0.000000 0.000000
vt 0.000000 0.000000
vt 0.000000 0.000000
vt 10.636364 -8.590909
vt -27.363636 -8.590909
vt -27.363636 7.409091
vt 10.636364 7.409091
vt -25.384411 -8.590909
vt 14.615589 -8.590909
vt 14.615589 7.409091
vt -25.384411 7.409091
vt -25.384411 -28.363638
vt 14.615589 -28.363638
vt 13.615588 -27.363636
vt -24.384411 -27.363636
vt 14.615589 11.636362
vt 13.615588 10.636364
vt -25.384411 11.636362
vt -24.384411 10.636364
vt -28.363638 -8.590909
vt 11.636362 -8.590909
vt 11.636362 7.409091
vt -28.363638 7.409091
vt 10.636364 -8.095421
vt 10.636364 6.913601
vt 11.636362 6.913601
vt 11.636362 -8.095421
vt 13.615588 -8.590909
vt -24.384411 -8.590909
vt -24.384411 7.409091
vt 13.615588 7.409091
vt -24.384411 -8.590909
vt 13.615588 -8.590909
vt 11.816034 -8.095421
vt 4.779401 -8.095421
vt 13.615588 7.409091
vt 11.816034 6.913601
vt -24.384411 7.409091
vt 4.779401 6.913601
vt 4.779401 10.636364
vt 11.816034 10.636364
vt 11.816034 11.636362
vt 4.779401 11.636362
vt 11.816034 10.636364
vt 4.779401 10.636364
vt 4.779401 11.636362
vt 11.816034 11.636362
vt 10.636364 6.913601
vt 10.636364 -8.095421
vt 11.636362 -8.095421
vt 11.636362 6.913601
vt -25.384411 -8.590909
vt -25.384411 7.409091
vt 4.779401 6.913601
vt 4.779401 -8.095421
vt 14.615589 7.409091
vt 11.816034 6.913601
vt 14.615589 -8.590909
vt 11.816034 -8.095421
vn 0.0000 1.0000 0.0000
vn 1.0000 0.0000 0.0000
vn -1.0000 0.0000 0.0000
vn 0.0000 0.0000 1.0000
vn 0.0000 0.0000 -1.0000
vn 0.0000 -1.0000 0.0000
usemtl Material.002
s off
f 5/1/1 6/2/1 7/3/1 8/4/1
f 5/5/2 8/6/2 9/7/2 10/8/2
f 3/9/3 1/10/3 13/11/3 16/12/3
f 7/13/3 6/14/3 11/15/3 12/16/3
f 1/17/4 2/18/4 14/19/4 13/20/4
f 13/21/1 14/22/1 11/23/1 10/24/1
f 14/22/1 15/25/1 12/26/1 11/23/1
f 15/25/1 16/27/1 9/28/1 12/26/1
f 16/27/1 13/21/1 10/24/1 9/28/1
f 2/29/2 4/30/2 15/31/2 14/32/2
f 18/33/3 19/34/3 24/35/3 21/36/3
f 6/37/5 5/38/5 10/39/5 11/40/5
f 8/41/4 7/42/4 18/43/4 17/44/4
f 7/42/4 12/45/4 19/46/4 18/43/4
f 12/45/4 9/47/4 20/48/4 19/46/4
f 9/47/4 8/41/4 17/44/4 20/48/4
f 17/49/1 18/50/1 21/51/1 22/52/1
f 19/53/6 20/54/6 23/55/6 24/56/6
f 20/57/2 17/58/2 22/59/2 23/60/2
f 3/61/5 16/62/5 23/63/5 22/64/5
f 16/62/5 15/65/5 24/66/5 23/63/5
f 15/65/5 4/67/5 21/68/5 24/66/5
f 4/67/5 3/61/5 22/64/5 21/68/5
